<svg width="30" height="47" viewBox="0 0 30 47" fill="none" xmlns="http://www.w3.org/2000/svg">
<mask id="path-1-inside-1_28_9" fill="white">
<path fill-rule="evenodd" clip-rule="evenodd" d="M0 1C0 0.447715 0.447716 0 1 0H29C29.5523 0 30 0.447715 30 1V32L29.9999 45.5858C29.9999 46.4767 28.9228 46.9229 28.2928 46.2929L15.7071 33.7071C15.3166 33.3166 14.6834 33.3166 14.2929 33.7071L1.70719 46.2929C1.07723 46.9229 8.45612e-05 46.4767 7.93572e-05 45.5858L0 32V1Z"/>
</mask>
<path fill-rule="evenodd" clip-rule="evenodd" d="M0 1C0 0.447715 0.447716 0 1 0H29C29.5523 0 30 0.447715 30 1V32L29.9999 45.5858C29.9999 46.4767 28.9228 46.9229 28.2928 46.2929L15.7071 33.7071C15.3166 33.3166 14.6834 33.3166 14.2929 33.7071L1.70719 46.2929C1.07723 46.9229 8.45612e-05 46.4767 7.93572e-05 45.5858L0 32V1Z" fill="#FF4E4E"/>
<path d="M30 32L31 32V32H30ZM0 32H-1V32L0 32ZM15.7071 33.7071L16.4142 33L15.7071 33.7071ZM14.2929 33.7071L15 34.4142L14.2929 33.7071ZM29.9999 45.5858L28.9999 45.5858L29.9999 45.5858ZM28.2928 46.2929L27.5857 47L28.2928 46.2929ZM1.70719 46.2929L2.4143 47L1.70719 46.2929ZM29 -1H1V1H29V-1ZM31 32V1H29V32H31ZM29 32L28.9999 45.5858L30.9999 45.5858L31 32L29 32ZM28.9999 45.5858L16.4142 33L15 34.4142L27.5857 47L28.9999 45.5858ZM2.4143 47L15 34.4142L13.5858 33L1.00008 45.5858L2.4143 47ZM-1 32L-0.999921 45.5858L1.00008 45.5858L1 32L-1 32ZM-1 1V32H1V1H-1ZM16.4142 33C15.6332 32.219 14.3668 32.219 13.5858 33L15 34.4142L16.4142 33ZM28.9999 45.5858V45.5858L27.5857 47C28.8456 48.2599 30.9999 47.3676 30.9999 45.5858L28.9999 45.5858ZM1 -1C-0.104568 -1 -1 -0.104571 -1 1H1H1V-1ZM1.00008 45.5858V45.5858L-0.999921 45.5858C-0.99991 47.3676 1.15437 48.2599 2.4143 47L1.00008 45.5858ZM29 1H31C31 -0.10457 30.1046 -1 29 -1V1Z" fill="#FF4E4E" mask="url(#path-1-inside-1_28_9)"/>
</svg>
