<svg width="30" height="45" viewBox="0 0 30 45" fill="none" xmlns="http://www.w3.org/2000/svg">
<mask id="path-1-inside-1_21_893" fill="white">
<path fill-rule="evenodd" clip-rule="evenodd" d="M0 1C0 0.447715 0.447716 0 1 0H29C29.5523 0 30 0.447715 30 1V30.8983L29.9999 43.9918C29.9999 44.8743 28.9401 45.3241 28.3053 44.7112L15.6946 32.5346C15.3071 32.1604 14.6929 32.1604 14.3054 32.5346L1.6947 44.7112C1.05985 45.3241 8.45472e-05 44.8743 7.92087e-05 43.9918L0 30.8983V1Z"/>
</mask>
<path fill-rule="evenodd" clip-rule="evenodd" d="M0 1C0 0.447715 0.447716 0 1 0H29C29.5523 0 30 0.447715 30 1V30.8983L29.9999 43.9918C29.9999 44.8743 28.9401 45.3241 28.3053 44.7112L15.6946 32.5346C15.3071 32.1604 14.6929 32.1604 14.3054 32.5346L1.6947 44.7112C1.05985 45.3241 8.45472e-05 44.8743 7.92087e-05 43.9918L0 30.8983V1Z" fill="#FFC4C4"/>
<path d="M30 30.8983L32 30.8983V30.8983H30ZM0 30.8983H-2V30.8983L0 30.8983ZM15.6946 32.5346L14.3054 33.9733L15.6946 32.5346ZM14.3054 32.5346L12.9161 31.0958L14.3054 32.5346ZM29.9999 43.9918L27.9999 43.9918L29.9999 43.9918ZM28.3053 44.7112L29.6945 43.2724L28.3053 44.7112ZM1.6947 44.7112L3.08393 46.1499L1.6947 44.7112ZM29 -2H1V2H29V-2ZM32 30.8983V1H28V30.8983H32ZM28 30.8983L27.9999 43.9918L31.9999 43.9918L32 30.8983L28 30.8983ZM29.6945 43.2724L17.0839 31.0958L14.3054 33.9733L26.9161 46.1499L29.6945 43.2724ZM3.08393 46.1499L15.6946 33.9733L12.9161 31.0958L0.305462 43.2724L3.08393 46.1499ZM-2 30.8983L-1.99992 43.9918L2.00008 43.9918L2 30.8983L-2 30.8983ZM-2 1V30.8983H2V1H-2ZM17.0839 31.0958C15.9214 29.9733 14.0786 29.9733 12.9161 31.0958L15.6946 33.9733C15.3071 34.3475 14.6929 34.3475 14.3054 33.9733L17.0839 31.0958ZM27.9999 43.9918C27.9999 43.1093 29.0597 42.6594 29.6945 43.2724L26.9161 46.1499C28.8206 47.9889 31.9999 46.6393 31.9999 43.9918L27.9999 43.9918ZM1 -2C-0.656851 -2 -2 -0.656856 -2 1H2C2 1.55229 1.55228 2 1 2V-2ZM0.305462 43.2724C0.940297 42.6594 2.00007 43.1093 2.00008 43.9918L-1.99992 43.9918C-1.9999 46.6393 1.17941 47.9889 3.08393 46.1499L0.305462 43.2724ZM29 2C28.4477 2 28 1.55229 28 1H32C32 -0.656855 30.6569 -2 29 -2V2Z" fill="#FF4E4E" fill-opacity="0.49" mask="url(#path-1-inside-1_21_893)"/>
<rect x="2" width="26" height="2" fill="#FFC3C3"/>
<rect width="1" height="1" fill="#FF8A8A"/>
<rect x="29" width="1" height="1" fill="#FF8A8A"/>
</svg>
